<?xml version="1.0" encoding="UTF-8"?>
<svg xmlns="http://www.w3.org/2000/svg" xmlns:xlink="http://www.w3.org/1999/xlink" width="60pt" height="68pt" viewBox="0 0 60 68" version="1.1">
<g id="surface1">
<path style=" stroke:none;fill-rule:nonzero;fill:rgb(0%,0%,0%);fill-opacity:1;" d="M 57.855469 40.375 C 57.855469 55.636719 45.386719 68 30 68 C 14.613281 68 2.144531 55.636719 2.144531 40.375 C 2.144531 26.5625 12.363281 15.113281 25.714844 13.082031 L 25.714844 8.5 L 21.964844 8.5 C 21.082031 8.5 20.355469 7.78125 20.355469 6.90625 L 20.355469 1.59375 C 20.355469 0.71875 21.082031 0 21.964844 0 L 38.035156 0 C 38.917969 0 39.644531 0.71875 39.644531 1.59375 L 39.644531 6.90625 C 39.644531 7.78125 38.917969 8.5 38.035156 8.5 L 34.285156 8.5 L 34.285156 13.082031 C 39.308594 13.851562 43.886719 15.949219 47.636719 19.003906 L 51.320312 15.351562 C 51.949219 14.730469 52.96875 14.730469 53.597656 15.351562 L 57.386719 19.113281 C 58.019531 19.734375 58.019531 20.746094 57.386719 21.371094 L 53.449219 25.273438 L 53.371094 25.355469 C 56.210938 29.65625 57.855469 34.824219 57.855469 40.375 Z M 34.285156 45.15625 L 34.285156 25.035156 C 34.285156 24.160156 33.5625 23.441406 32.679688 23.441406 L 27.320312 23.441406 C 26.4375 23.441406 25.714844 24.160156 25.714844 25.035156 L 25.714844 45.15625 C 25.714844 46.03125 26.4375 46.75 27.320312 46.75 L 32.679688 46.75 C 33.5625 46.75 34.285156 46.03125 34.285156 45.15625 Z M 34.285156 45.15625 "/>
</g>
</svg>
